<svg version="1" xmlns="http://www.w3.org/2000/svg" width="600" height="600" viewBox="0 0 450.000000 450.000000"><path d="M212.8 2.2C198.5 7.1 189.1 22 190.2 38c1.2 17.4 15 31.4 32.3 32.5 21.6 1.4 39.2-16.7 37.2-38.3-1.2-12.6-8.2-22.9-19.3-28.3-8.3-4.1-18.8-4.8-27.6-1.7zM148 58.1c-11.1 8.4-31.3 19.4-39.3 21.4-4.1 1.1-3.4 5.7 1.5 11.2l2 2.2 6.2-2.3c8.8-3.3 18-8.1 26.5-13.8 4-2.7 7.4-4.8 7.6-4.6.1.2 2 3.4 4.3 7.3 6.6 11.5 16.7 20.6 29.5 26.5 6.6 3.1 19.9 6.8 23.7 6.6 2.2-.1 2.4-.6 2.4-5.9.1-3.3-.1-6-.4-6.2-.3-.2-3-.6-6-1-19.5-2.5-35.6-16.4-45.1-38.9-2.1-5.1-3.7-7.6-4.8-7.5-.9 0-4.5 2.3-8.1 5zM289.5 59.7c-6.2 14.6-13.8 24.6-23.5 31.2-8.6 5.7-18 8.9-26.5 9.1-1.8 0-2 .7-1.9 6.2v6.3l4.5-.3c2.4-.1 7.5-1.2 11.4-2.3 18.2-5.5 32.4-16.7 41-32.4 1.5-2.8 2.9-5.1 3-5.3.2-.2 3.4 1.8 7.1 4.4 6.5 4.4 23.1 12.8 30 15.2 2.9.9 3.5.7 5.7-1.6 1.4-1.5 2.8-4.3 3.2-6.3.6-3.4.5-3.7-2.2-4.3-8.1-2.1-29-13.5-40.5-22.3-3.1-2.4-6.3-4.3-7.1-4.3-.8 0-2.6 2.9-4.2 6.7z"/><path d="M213 73.5c0 3.3.2 3.5 4 4.1 2.2.4 4 1 4 1.4 0 .4-1.6.4-3.6 0l-3.5-.8.6 47.6c.4 26.3.8 60.2 1 75.5.1 15.3.5 28.1.8 28.3.6.6 15.7-5.2 17-6.5.7-.7 1.8-64.3 2.1-122.1.1-18.4-.1-22.4-1.3-22.2-3.8.8-12.1 1.1-12.1.4 0-.4 1.9-.8 4.3-.9 2.3-.1 5.1-.4 6.2-.7 1.1-.2 2.6-.5 3.3-.5.7-.1 1.2-1.5 1.2-3.6 0-3.4-.1-3.4-2.7-2.4-3.5 1.3-15.1 1.3-18.6 0-2.6-1-2.7-.9-2.7 2.4zM297 75.7c-.8 1.6-2.5 4.5-3.8 6.6-1.3 2.2-2.2 4-2 4.2.2.2 4.7 3.3 10.1 6.9 10.4 6.9 22.6 13.2 26.6 13.8 3.1.4 8.1-5.6 8.4-10.1.2-3.1 0-3.3-8.8-6.9-12-5-26.1-13.1-28.6-16.5-.3-.4-1.2.5-1.9 2zM146.5 77.2c-5.9 4.4-15.9 9.8-25 13.5-8.9 3.6-9.4 4.6-5.9 11.8 2 4.2 4.8 5.2 10.1 3.5 4.9-1.6 18-9 26.3-14.8 3.6-2.5 6.6-4.6 6.8-4.7.5-.4-6.3-11.8-7.3-12.1-.5-.1-2.8 1.1-5 2.8z"/><path d="M100.5 84.7c-7.8 4.2-26.7 11.3-43.4 16.2-12.1 3.6-11 3.4-26.8 6.3-6.7 1.3-12.4 2.6-12.8 2.9-.3.3.3 1.4 1.4 2.3 6.1 5.5 25.5 5.8 45.6.8 10.9-2.8 34.5-10.6 43.8-14.6 4.3-1.9 4.7-4 1.3-6.7-1.4-1.1-3-3.5-3.6-5.4-1.3-4-1.4-4-5.5-1.8zM344 86.4c-.6 2-2.3 4.5-3.7 5.5-4.2 3.4-2.7 5 8.7 9.3 5.8 2.2 11.4 4.4 12.5 4.9 6 2.4 27.5 8.3 35 9.6 1.6.3 7.9.6 13.9.8 11.6.3 18-1 21.1-4.5 1.5-1.7 1.5-1.9-.2-2.4-1-.2-3.5-.7-5.5-1-18.5-2.7-49.4-11.9-68.3-20.3-5.5-2.4-10.5-4.7-11.1-4.9-.7-.3-1.7 1-2.4 3zM287.1 90.4l-3.2 3.3 6.5 6c7.5 7 17.6 14.4 24.2 17.8l4.7 2.4 3.1-2.4c1.7-1.3 3.9-3.7 4.9-5.4 1.8-3 1.8-3.1 0-3.7-8.7-2.8-21.5-9.8-31.9-17.5l-5.1-3.8-3.2 3.3zM150.5 93.6c-9.8 6.7-21.9 13.2-26.2 14-1.8.3-3.3.8-3.3 1.1 0 1.4 2.8 5.2 5.8 8 3.3 3 3.7 3.1 6.6 1.9 6.9-2.9 21.5-13.8 31.3-23.2 1-1 .8-1.9-1.3-4.3-1.4-1.7-3.1-3.1-3.7-3-.7 0-4.8 2.5-9.2 5.5z"/><path d="M159.5 101.6c-7.2 6.7-23.8 18.4-26.2 18.4-1.7 0-1.7.3.8 4.5 2.2 3.7 8.6 8.5 11.3 8.5 3.7 0 16.4-14.4 24.6-27.7l3.2-5.3-2.9-2.5c-1.5-1.3-3-2.4-3.3-2.4-.3 0-3.6 2.9-7.5 6.5zM279.8 97.5c-1.6 1.3-2.8 2.6-2.8 2.9 0 1.1 10.2 15.7 14.9 21.4 6.7 8 11.4 11.6 14.3 10.8 3.8-.9 12.4-9.8 11.3-11.6-.3-.4-2.4-1.8-4.7-3-6.2-3.2-15.5-10.1-23-16.9-3.6-3.4-6.8-6.1-7-6.1-.1 0-1.5 1.2-3 2.5zM105 101.1c-15.6 7-46.1 15.5-59 16.6-4.1.3-7.7.7-7.8.9-.7.6 7.5 4.3 13.2 5.9 9 2.6 21.1 2 40.7-2 8.5-1.7 28.9-9.4 28.9-10.9 0-.3-1.5-2.3-3.4-4.3-1.8-2.1-3.6-4.8-4-6.1-.9-2.7-2.7-2.7-8.6-.1zM336 101.9c-.6 1.6-2.1 3.8-3.2 4.8-4.7 4.2-4.4 5.2 2.4 8.2 11 5 25 8.7 40.7 10.6 12.9 1.6 22.5.3 31.6-4.3l5-2.6-10.5-1.2c-14.8-1.8-37.1-8-55.4-15.6-3.8-1.5-7.4-2.8-8.1-2.8-.7 0-1.8 1.3-2.5 2.9z"/><path d="M171.4 105.2c-6.8 11-10.4 15.8-17.3 22.6l-7.3 7.4 2.8 3c3.2 3.4 8.6 6.1 10.6 5.3 2.7-1.1 13.3-19.3 18.2-31.5 2.5-6.2 2.6-6.6.9-7.8-4.7-3.5-5.1-3.4-7.9 1zM272.2 103.1c-1.7 1.2-3.2 2.3-3.2 2.5 0 .3 2.2 5.3 4.8 11.3 5.3 11.9 14.8 27.1 16.9 27.1 2.3 0 6.6-2.6 9.7-5.8l2.8-3-7.3-7.4c-4.1-4-10.1-11.4-13.3-16.3-3.3-5-6.2-9.3-6.5-9.7-.3-.4-2.1.2-3.9 1.3z"/><path d="M181.4 108.2c-2.4 7.8-14.1 29.4-18.5 34.3-1 1.1-1.5 2.5-1.1 3.1 1.4 2.2 7.8 5.4 10.8 5.4 2.8 0 3.4-.6 5.6-5.3 3.1-6.5 5.2-12.9 8.7-26.1l2.7-10.4-3.3-1.6c-4.2-2-4-2-4.9.6zM263.4 107.7l-3 1.5 2.3 9.1c3 11.4 8 26.3 10.1 29.9 1.2 2.1 2.4 2.8 4.7 2.8 2.9 0 9.3-3.2 10.6-5.3.4-.5-1.1-3.3-3.2-6.1-3.5-4.6-12.6-21.9-15.9-30.4-1.4-3.6-1.4-3.6-5.6-1.5z"/><path d="M189.5 114.2c-1 6.1-7.2 26.3-9.4 30.7-3.4 6.7-3.4 7.7-.4 8.9 5.1 2 8.9 2.4 10 1 1.4-1.7 6-20.2 7.4-29.8.6-4.1 1.2-8.5 1.4-9.7.4-2.6-.9-3.8-5.2-4.7-3-.7-3.1-.6-3.8 3.6zM253.8 111.1c-2.2.9-2.6 1.5-2.3 3.7.3 1.5 1.2 7.2 2.1 12.7 2.1 12.9 2 12.3 4 19.7 2.1 7.8 2.8 8.7 6.2 8.3 3.9-.4 9.2-2.5 9.2-3.7 0-.6-.9-2.7-2-4.7-1.7-3.1-6.4-16.1-7.6-21.1-4.1-16.7-4.2-16.9-9.6-14.9zM199.5 116.8c-1.2 9-4.5 25.7-6.4 32.3l-1.9 6.7 2.5 1.1c1.3.6 3.9 1.1 5.7 1.1 4.4 0 4.5-.4 6.5-16.5.8-6.8 1.5-27.5.9-27.5-.2 0-1.8-.4-3.5-.9l-3.2-.9-.6 4.6z"/><path d="M246.2 113.2l-3.3.9.2 10.7c.2 11.5 1.8 25.7 3.5 31.4.8 2.7 8.5 2.2 12.2-.7.1-.1-.5-2.1-1.3-4.5-2-5.5-5.5-22.9-6.2-30-.8-8.2-1.2-8.8-5.1-7.8zM117.9 115c-8.9 4.6-27.3 9.7-41.3 11.6-1.6.2-3.1.5-3.3.7-.5.6 11.6 5.4 15.4 6.2 11.6 2.6 25.1.6 38.1-5.5l6.3-2.9-1.7-2.6c-.9-1.4-2.1-2.5-2.6-2.5-.6 0-2.5-1.5-4.2-3.4l-3.2-3.3-3.5 1.7zM325.5 116.6c-1.6 1.9-3.5 3.4-4.1 3.4-.7 0-1.9 1.1-2.7 2.4-1.9 2.8-1.6 3.1 5.8 6.4 15.1 6.5 30 7.5 43.1 2.8 5.5-2 10.2-4.6 8.4-4.7-.8 0-2.4-.2-3.5-.4s-4.9-.9-8.5-1.5c-8.4-1.4-25.2-6.6-31-9.5l-4.5-2.3-3 3.4zM208.4 119.7c-.2 12.2-2.5 35-3.8 37.1-.8 1.4.8 2.9 4 3.6 2.5.6 3.2.4 3.6-1.1.2-1 .3-11.5.3-23.3-.1-20.5-.2-21.5-2-21.8-1.8-.2-2 .4-2.1 5.5z"/><path d="M237.8 114.7c-.2.5-.4 10.9-.3 23.3v22.5l2.8.1c4.1.2 5.7-1.9 4.7-5.8-1.7-6.6-3.1-19.6-3.3-32.1-.1-7.5-.4-8.7-1.9-8.7-.9 0-1.8.3-2 .7zM314.8 127.8c-3 3.5-2.9 4 1.9 5.7 6.3 2.1 12.5 2.9 17.1 2l3.7-.7-6.5-2.2c-3.6-1.3-8.4-3.2-10.6-4.4-3.9-2-4.3-2-5.6-.4zM126.9 129.4c-2.5 1.2-6.7 2.9-9.5 3.6-4.4 1.3-4.6 1.5-2.4 2.1 4.6 1.3 9.7.9 16.4-1.1 3.6-1.2 6.6-2.3 6.6-2.5 0-1.3-3.6-4.5-5-4.4-.8 0-3.5 1-6.1 2.3zM270.1 171c-10 3.6-12.1 6.2-12.1 14.3l.1 4.2 1.3-3c1.7-3.7 5.2-7 9.1-8.5 3-1.1 3-1.1-.7 2-3.3 2.7-7.8 8.7-7.8 10.4 0 .3 1.9.4 4.2.1 5.7-.7 9.4-4.4 10.7-10.7.6-2.7 1.8-6.2 2.6-7.8 1.4-2.8 1.4-3-.2-3-1 .1-4.2.9-7.2 2zM253 185.5c0 .5 1 2.5 2.3 4.4 4.1 6.4 4.7 7.6 4.7 10.6 0 3.8-3.1 10.6-6.1 13.4-4.3 4.1-13.8 9-28.2 14.7-17.4 6.9-22.7 9.5-29.3 14.4-11.1 8.3-12.1 20.4-2.4 30 4.6 4.6 18.4 12.5 20.1 11.4 2.3-1.4.3-3.6-7.2-7.6-8.6-4.5-14.4-10.1-15.4-14.8-2.3-10.5 7.6-19.3 32.5-29.1 28.5-11.2 38-19.3 38-32.4 0-1.8-1.1-4.6-2.5-6.6-1.4-1.9-3.4-4.8-4.5-6.4-1.1-1.7-2-2.6-2-2z"/><path d="M192.1 191.2c-6.2 7.4-5.4 17.1 2 24.6 5.1 5.1 20.3 13.3 19.7 10.7-.1-1-3.4-3.4-7.1-5.4-15.7-8.3-20.8-19.2-13.6-29 4-5.6 3.3-6.1-1-.9zM289 213.8c0 1.5-5.3 3.4-11 3.8-17.6 1.6-25.8 8-25.1 19.6.2 3.1 2.6 2 4-1.8 1.5-4.1 7.6-8.9 13.4-10.5 2.1-.6 4.1-.8 4.4-.5.3.2-1.2.9-3.2 1.5-8.1 2.2-14.5 9.3-14.5 16 0 3.5 4.9 4 12.5 1.5 6.3-2.2 12.8-8.8 16.5-16.6 2.8-5.9 4.8-13.8 3.6-13.8-.3 0-.6.4-.6.8zM175.4 220.6c2.8 11.4 12 20.3 19.8 19.2 5.3-.7 1.6-8.7-5.7-12.4-2.7-1.4-3.9-2.2-2.5-1.8 4.3 1.1 8.4 3.9 10.6 7.2 1.2 1.7 2.4 2.8 2.8 2.5 1.3-1.3.5-5.1-1.6-7.8-2.6-3.4-7-5.3-14-6.1-2.9-.3-6.4-1.3-7.7-2.1-2.3-1.5-2.4-1.5-1.7 1.3zM225 234.5c-4.6 1.9-8.6 3.5-8.7 3.5-.2 0-.2 10.6-.1 23.5.2 17.9.6 23.5 1.5 23.5 1.1 0 14.2-4.8 15.2-5.6.4-.3 1.3-48.4.9-48.4-.2 0-4.1 1.6-8.8 3.5z"/><path d="M236 235.4c0 .8 2.7 2.9 6 4.7 12.1 6.4 17.7 13.5 16.4 20.6-1.7 9.1-8.6 14-35.4 24.8-18.1 7.3-26.3 11.8-31 17.1-7 8-7.2 17.3-.5 25.6 2.8 3.4 11 9.1 17 11.8 2.8 1.2 5.3 2.4 5.8 2.7.4.2.7-1.1.7-3 0-3-.4-3.6-4.2-5.2-11.1-4.9-18.8-12.6-18.8-19 0-9.7 8.5-16 37.9-27.9 19-7.8 26.6-12.9 30.4-20.6 5.5-11.1.2-21.3-15.4-29.5-7.4-3.9-8.9-4.2-8.9-2.1zM273.4 246.7c-1.2.2-3.6 2-5.5 3.9l-3.4 3.5 2.8-1c3.8-1.5 9.9-1.4 12 .1 1.4 1.1.6 1.3-5.4 1.5-8.9.1-10.2 1.2-5.6 4.7 4.7 3.6 10.1 3.5 15.3-.3 2.1-1.6 5.5-3.3 7.4-3.8l3.4-.9-6.5-3.6c-6.7-3.7-10.9-4.9-14.5-4.1z"/><path d="M224.8 291.8c-3.6 1.5-6.9 3-7.3 3.4-.7.7-.7 44.9 0 45.6.2.3 3.7-.9 7.7-2.5l7.3-2.9.3-23.2c.2-12.8 0-23.2-.5-23.1-.4 0-3.8 1.2-7.5 2.7z"/><path d="M235 291.5c0 2.1 1 3 5.9 5.4 12.2 5.9 18.1 13.1 16.7 20.5-1.5 7.9-9.9 13.9-32.1 22.9-6 2.4-13.2 5.5-16 6.7-18.2 8.5-25.3 18.3-21.8 30.1 2.1 7.3 8.8 13.1 22 19l6.3 2.8v-2.2c0-1.7-1.4-2.9-5.8-5.1-6.7-3.3-13-8-15.7-11.4-1-1.4-2-4.6-2.3-7.1-.8-9.3 6.7-15.6 30.8-25.5 21.8-8.9 26.4-11.3 31.9-16.2 14.5-13.1 10-28.4-11.4-38.8-4.1-2-7.6-3.6-7.9-3.6-.3 0-.6 1.1-.6 2.5z"/><path d="M167.5 342.1c-4.4 2.3-9.2 4.8-10.7 5.6-1.6.8-2.8 1.7-2.8 2 0 .4.3.4.6 0 1.1-1.1 9 2 15.3 6.1 9.2 6 15.5 5.7 23.1-1.2l3.7-3.3-4.6-1.1c-2.5-.6-7.9-1-11.9-.9-3.9.1-7.2-.1-7.2-.5 0-1.3 7.6-3.2 12.2-3 2.6.1 6.2.9 8 1.8 3.2 1.7 3.2 1.6 1.8-.1-8.8-10.8-14.9-11.9-27.5-5.4zM234.4 347.2c.3 1.3.5 2.6.5 3 .1.4 3 2.2 6.6 4 11.6 5.7 16.5 11.3 16.5 18.6 0 3.1-3.7 9.3-7.3 12.3-6.6 5.5-46.2 22.8-58.2 25.4-8 1.7-15.9 4.5-15.1 5.2.2.3 1.7-.2 3.3-1 1.5-.8 4.7-1.7 7-2l4.3-.5-4 4.6c-5.3 6.3-4.3 6.5 1.5.3 2.5-2.7 6-5.4 7.8-6 3.1-1.1 3-1.1-1 2.4-4.9 4.2-8.3 10.7-8.3 16.1 0 2.1-.7 4.7-1.4 5.7-1.7 2.2-6.7 3.7-12.2 3.7-2.8 0-4.6.6-5.5 1.7-1.2 1.6-1.2 1.7.1.6.9-.6 4.1-1.3 7.3-1.4 3.1-.1 7-.9 8.7-1.7 3.1-1.5 3.9-3 4.6-9 .5-4.2 4.9-11.8 8-13.9 1.9-1.2 2-1.1 1.8 1.9l-.3 3.3.8-3.1c1.5-6 1.7-6 27.9-16.4 26.1-10.3 34.1-16.6 35-27.4.8-10.4-5.7-18.6-20.3-25.5-7.8-3.7-8.6-3.8-8.1-.9z"/><path d="M224.5 349.1l-7 2.8.2 16.3c.1 9 .2 19.6.2 23.5l.1 7.3 4.3-1.7c2.3-.9 4.6-2 5.2-2.5.5-.4 1.7-.8 2.7-.8 1.7 0 1.8-1.3 1.9-15.3 0-8.3.2-18.9.3-23.5.1-4.6-.1-8.5-.4-8.7-.3-.1-3.6 1-7.5 2.6zM173.7 365.3c-2.5.8-5.7 4.9-9.1 11.6-1 1.8-1.2 3-.6 2.6.6-.4 4.1-.9 7.6-1.1 8.8-.5 11.7-2.4 12.9-8.5.6-3-2.5-2.2-9.9 2.6l-2.9 1.9 1.4-2.2c.8-1.3 3.3-3.2 5.7-4.3 2.3-1.2 4.2-2.2 4.2-2.4 0-.8-7.1-1-9.3-.2zM224.5 404.3l-6 2.2-.1 10.8-.1 10.7h13.2l.1-13c.1-7.2-.2-13-.5-12.9-.3 0-3.3 1-6.6 2.2zM233.5 404c-.3.5 3.2 2.7 7.7 4.9 12.1 5.8 17.3 11 18.2 18.1 1.1 8.2 4.6 11.6 14.1 13.4 2.2.5 2 .2-1-.9-8.9-3.4-11.5-6.2-11.5-12.5 0-5.9-4.4-12-13-18.3l-2.5-1.8 4.1.4c5.1.6 10 2.8 13.9 6.4 11 10 12.7 11.3 4.8 3.6l-9.2-9 3.3-.1c2.3-.1 4 .6 5.6 2.3 2.3 2.4 8.7 5.2 9.6 4.2.3-.3-.8-.8-2.4-1.2-1.6-.3-4-1.7-5.3-3.1-2.1-2.2-2.1-2.4-.4-1.8 1.1.4 2.9 1.3 4 2.1 1.1.7 2.6 1.3 3.5 1.3.8 0-.7-1.1-3.5-2.4-3.8-1.8-7.6-2.5-16-3.1-6-.3-12-.6-13.3-.6-1.3.1-3.6-.6-5.2-1.4-3.4-1.7-4.7-1.9-5.5-.5zM173.8 416.7c.7.3 1.6.2 1.9-.1.4-.3-.2-.6-1.3-.5-1.1 0-1.4.3-.6.6zM178.5 428.2l-5 5.3 5.3-5c4.8-4.6 5.7-5.5 4.9-5.5-.1 0-2.5 2.4-5.2 5.2zM164.6 443.5c-1.1.8-1.5 1.5-.9 1.5s1.6-.7 2.3-1.5c1.6-1.9 1.1-1.9-1.4 0z"/></svg>