<?xml version="1.0" encoding="utf-8"?>
<!-- Generator: Adobe Illustrator 16.0.0, SVG Export Plug-In . SVG Version: 6.00 Build 0)  -->
<svg version="1.2" baseProfile="tiny" id="Layer_1" xmlns="http://www.w3.org/2000/svg" xmlns:xlink="http://www.w3.org/1999/xlink"
	 x="0px" y="0px" width="400.707px" height="120.092px" viewBox="0 0 400.707 120.092" xml:space="preserve">
<path fill="#9E1F7E" d="M327.688,32.423c0-15.573,56.375,23.081,73.019,4.294l-16.822,32.833l12.661,30.646
	c0,0-52.211-17.316-69.39-0.139L327.688,32.423z"/>
<path fill="#9E1F7E" d="M73.008,32.423c0-15.573-56.367,23.081-73.008,4.294l16.821,32.833l-12.66,30.646
	c0,0,52.204-17.316,69.383-0.139L73.008,32.423z"/>
<path fill="#F7A820" d="M370.371,53.087c0.807-22.547-42.682-1.073-42.682-22.008v49.923c0,0,42.682-4.828,42.682,17.182V53.087z"/>
<path fill="#F7A820" d="M30.332,53.087c-0.807-22.547,42.676-1.073,42.676-22.008v49.923c0,0-42.676-4.828-42.676,17.182V53.087z"/>
<path fill="#9E1F7E" d="M200.463,0.013V0c-0.04,0-0.074,0.007-0.115,0.007c-0.035,0-0.07-0.007-0.099-0.007v0.013
	C94.457,2.43,30.281,75.503,30.281,51.746v45.091c0,15.421,84.945,23.21,169.968,23.255h0.099h0.115
	c85.018-0.045,169.958-7.834,169.958-23.255V51.746C370.421,75.503,306.246,2.43,200.463,0.013"/>
<g>
	<path fill="#F7A820" d="M109,103.324l-1.07-0.095c-0.842-0.073-1.69-0.033-2.544,0.122c-0.855,0.155-1.758,0.327-2.709,0.517
		c-0.951,0.189-1.979,0.351-3.083,0.484c-1.104,0.133-2.328,0.141-3.668,0.022c-2.383-0.209-4.466-0.799-6.25-1.768
		c-1.784-0.969-3.25-2.213-4.396-3.729c-1.146-1.517-1.968-3.253-2.465-5.209c-0.497-1.956-0.649-4.025-0.457-6.209
		c0.117-1.327,0.373-2.645,0.768-3.955c0.396-1.309,0.929-2.549,1.6-3.72c0.67-1.17,1.473-2.246,2.408-3.228
		c0.934-0.982,2.003-1.815,3.207-2.501c1.203-0.685,2.53-1.187,3.982-1.505c1.451-0.317,3.026-0.402,4.724-0.254
		c0.571,0.051,1.212,0.154,1.925,0.31c0.712,0.156,1.435,0.36,2.168,0.611s1.447,0.541,2.145,0.868
		c0.697,0.327,1.322,0.694,1.876,1.103l0.042,0.004l0.014-1.875l3.381,0.297l-0.901,10.252l-2.867-0.252
		c-0.093-1.244-0.341-2.349-0.745-3.312c-0.404-0.963-0.937-1.782-1.596-2.459c-0.66-0.676-1.425-1.207-2.297-1.593
		c-0.872-0.386-1.821-0.624-2.849-0.714c-1.527-0.135-2.885,0.099-4.073,0.699c-1.189,0.6-2.202,1.445-3.038,2.536
		c-0.836,1.092-1.499,2.367-1.986,3.826c-0.488,1.46-0.801,2.981-0.94,4.565c-0.167,1.897-0.124,3.659,0.129,5.284
		c0.252,1.626,0.713,3.05,1.382,4.273s1.542,2.206,2.62,2.947c1.078,0.742,2.366,1.179,3.864,1.311
		c0.428,0.037,0.916,0.056,1.462,0.053c0.546-0.002,1.108-0.024,1.688-0.067c0.579-0.042,1.142-0.115,1.691-0.218
		c0.547-0.103,1.038-0.236,1.469-0.399l0.357-4.066c0.035-0.399,0.073-0.792,0.114-1.176c0.041-0.385,0.084-0.751,0.129-1.1
		c0.045-0.348,0.091-0.664,0.137-0.948c0.046-0.282,0.092-0.517,0.137-0.699l-3.307-0.161l0.297-3.382l11.643,1.023l-0.254,2.889
		c-0.502-0.015-0.939,0.004-1.31,0.058s-0.687,0.202-0.945,0.445c-0.258,0.243-0.47,0.605-0.634,1.087
		c-0.165,0.482-0.283,1.137-0.356,1.965L109,103.324z"/>
</g>
<g>
	<path fill="#F7A820" d="M126.72,83.105c1.573,0.09,3.021,0.432,4.342,1.023c1.322,0.592,2.449,1.402,3.38,2.43
		c0.931,1.029,1.64,2.256,2.125,3.684c0.485,1.426,0.678,3.018,0.578,4.777c-0.105,1.844-0.469,3.498-1.09,4.963
		c-0.622,1.463-1.445,2.693-2.47,3.689c-1.025,0.996-2.226,1.738-3.602,2.227c-1.377,0.488-2.866,0.686-4.467,0.596
		c-1.587-0.092-3.049-0.438-4.385-1.037s-2.477-1.41-3.422-2.432c-0.947-1.023-1.666-2.24-2.159-3.652
		c-0.493-1.414-0.69-2.984-0.592-4.715c0.104-1.816,0.491-3.459,1.163-4.926c0.672-1.469,1.542-2.707,2.611-3.715
		c1.068-1.008,2.292-1.766,3.669-2.275C123.779,83.232,125.218,83.02,126.72,83.105z M126.458,86.189
		c-0.859-0.02-1.589,0.186-2.187,0.619c-0.599,0.432-1.098,1.01-1.498,1.734c-0.4,0.725-0.702,1.551-0.906,2.48
		c-0.203,0.93-0.333,1.873-0.387,2.832c-0.064,1.133-0.039,2.258,0.076,3.377c0.116,1.119,0.345,2.129,0.688,3.023
		c0.343,0.896,0.811,1.635,1.402,2.213c0.591,0.58,1.33,0.895,2.217,0.945c0.873,0.035,1.598-0.166,2.176-0.607
		c0.577-0.441,1.048-1.029,1.413-1.762c0.365-0.734,0.634-1.563,0.809-2.486s0.289-1.857,0.343-2.803
		c0.063-1.088,0.05-2.191-0.038-3.311c-0.086-1.117-0.287-2.131-0.601-3.039c-0.314-0.908-0.752-1.658-1.313-2.252
		C128.09,86.563,127.358,86.24,126.458,86.189z"/>
</g>
<g>
	<path fill="#F7A820" d="M147.502,99.684c-0.009,0.215-0.023,0.473-0.042,0.773c-0.02,0.299-0.043,0.621-0.071,0.965
		c-0.028,0.342-0.06,0.695-0.096,1.061c-0.036,0.363-0.075,0.709-0.117,1.037l2.86-0.014l-0.133,3.348l-11.528-0.459l0.114-2.855
		c0.615,0.023,1.102-0.049,1.46-0.223c0.358-0.17,0.63-0.426,0.815-0.762c0.186-0.338,0.31-0.744,0.371-1.223
		c0.062-0.477,0.104-1.01,0.128-1.596l0.722-18.076c0.021-0.529,0.056-1.137,0.105-1.822c0.049-0.688,0.122-1.357,0.22-2.014
		l-3.097,0.006l0.132-3.307c1.016,0.041,1.916,0.033,2.699-0.023c0.783-0.055,1.453-0.139,2.009-0.248s1.006-0.234,1.348-0.373
		c0.343-0.141,0.595-0.279,0.758-0.416l2.383,0.096L147.502,99.684z"/>
</g>
<g>
	<path fill="#F7A820" d="M173.85,74.313l-0.677,26.137c-0.005,0.215-0.016,0.473-0.031,0.773c-0.015,0.301-0.034,0.621-0.057,0.965
		c-0.023,0.344-0.05,0.697-0.081,1.063c-0.031,0.363-0.065,0.711-0.103,1.039l2.86-0.055l-0.087,3.35l-8.354-0.215l-0.183-2.047
		l-0.043-0.002c-1,0.992-2.024,1.678-3.073,2.059c-1.048,0.383-2.117,0.559-3.205,0.529c-1.318-0.033-2.514-0.326-3.588-0.877
		s-1.99-1.318-2.745-2.307c-0.755-0.986-1.33-2.172-1.724-3.557c-0.394-1.387-0.568-2.932-0.524-4.635
		c0.046-1.775,0.35-3.404,0.911-4.889c0.561-1.482,1.332-2.754,2.313-3.818c0.98-1.063,2.147-1.885,3.502-2.467
		c1.354-0.58,2.848-0.85,4.48-0.809c0.816,0.021,1.534,0.123,2.152,0.303c0.618,0.182,1.197,0.379,1.736,0.594l0.076-2.92
		c0.005-0.215,0.016-0.473,0.031-0.773c0.015-0.301,0.034-0.623,0.057-0.967c0.023-0.342,0.05-0.697,0.081-1.061
		c0.031-0.365,0.065-0.711,0.103-1.04l-3.096,0.048l0.087-3.35c1.017,0.026,1.916,0.007,2.699-0.059
		c0.782-0.066,1.451-0.156,2.005-0.271c0.554-0.113,1.001-0.242,1.342-0.384c0.34-0.142,0.591-0.282,0.752-0.421L173.85,74.313z
		 M163.218,103.953c0.744,0.02,1.444-0.156,2.098-0.527c0.654-0.369,1.183-0.857,1.585-1.463l0.343-13.23
		c-0.309-0.223-0.741-0.422-1.295-0.602s-1.153-0.277-1.797-0.295c-1.018,0.004-1.869,0.236-2.555,0.697
		c-0.685,0.463-1.239,1.078-1.66,1.848c-0.421,0.771-0.727,1.646-0.917,2.631s-0.299,1.992-0.325,3.021
		c-0.025,0.945,0.037,1.887,0.185,2.82c0.148,0.936,0.402,1.777,0.762,2.523c0.36,0.748,0.835,1.359,1.424,1.832
		C161.656,103.684,162.373,103.932,163.218,103.953z"/>
</g>
<g>
	<path fill="#F7A820" d="M198.594,95.957l-14.461,0.137c-0.01,1.203,0.091,2.317,0.305,3.344c0.213,1.025,0.56,1.91,1.041,2.65
		c0.481,0.742,1.113,1.328,1.898,1.757c0.784,0.43,1.749,0.648,2.895,0.658c0.444,0.004,0.938-0.05,1.484-0.159
		c0.545-0.109,1.102-0.292,1.669-0.545s1.14-0.588,1.716-1.006c0.576-0.418,1.118-0.932,1.625-1.545l1.96,1.887
		c-0.797,1.125-1.643,2.034-2.537,2.729c-0.894,0.695-1.79,1.23-2.688,1.61c-0.899,0.38-1.782,0.634-2.649,0.763
		c-0.868,0.128-1.674,0.189-2.419,0.184c-1.619-0.014-3.091-0.299-4.419-0.854c-1.327-0.556-2.466-1.346-3.417-2.371
		s-1.682-2.256-2.192-3.692c-0.511-1.437-0.759-3.05-0.744-4.841c0.013-1.547,0.287-3.022,0.821-4.43
		c0.534-1.406,1.286-2.649,2.255-3.73c0.969-1.08,2.132-1.938,3.491-2.57s2.869-0.941,4.531-0.928
		c0.816,0.006,1.628,0.085,2.437,0.234c0.808,0.15,1.579,0.396,2.314,0.739s1.418,0.79,2.051,1.339
		c0.632,0.549,1.175,1.228,1.626,2.033c0.451,0.807,0.805,1.754,1.061,2.845S198.62,94.539,198.594,95.957z M188.949,88.099
		c-0.645-0.005-1.222,0.112-1.732,0.351c-0.511,0.24-0.954,0.572-1.33,0.999c-0.376,0.427-0.685,0.943-0.926,1.55
		c-0.242,0.607-0.416,1.275-0.522,2.004l8.1,0.068c-0.021-0.902-0.122-1.67-0.303-2.301c-0.181-0.632-0.431-1.146-0.75-1.543
		c-0.319-0.396-0.692-0.683-1.121-0.858C189.937,88.193,189.464,88.104,188.949,88.099z"/>
</g>
<g>
	<path fill="#F7A820" d="M223.923,100.532c0.002,0.215,0,0.473-0.004,0.773s-0.012,0.624-0.021,0.968
		c-0.012,0.344-0.025,0.698-0.043,1.063s-0.041,0.714-0.066,1.042l2.857-0.156l0.033,3.352l-11.537,0.113l-0.027-2.857
		c0.615-0.006,1.098-0.104,1.447-0.293c0.348-0.189,0.607-0.457,0.775-0.802c0.17-0.345,0.273-0.757,0.311-1.237
		c0.039-0.479,0.055-1.012,0.049-1.599l-0.082-6.265c-0.035-1.93-0.342-3.344-0.924-4.238c-0.582-0.896-1.482-1.338-2.699-1.326
		c-0.76,0.008-1.49,0.172-2.197,0.494c-0.705,0.321-1.307,0.707-1.803,1.154l0.098,9.955c0.002,0.214,0,0.472-0.004,0.771
		c-0.004,0.301-0.012,0.623-0.023,0.966c-0.01,0.344-0.025,0.698-0.043,1.063s-0.039,0.711-0.064,1.041l2.855-0.157l0.033,3.351
		l-11.537,0.113l-0.027-2.856c0.615-0.006,1.098-0.104,1.447-0.294c0.348-0.189,0.607-0.457,0.775-0.803
		c0.17-0.345,0.273-0.758,0.311-1.238c0.039-0.479,0.055-1.014,0.049-1.601l-0.072-7.411c-0.006-0.53,0-1.121,0.014-1.773
		c0.016-0.651,0.055-1.307,0.121-1.967l-3.092,0.158l-0.032-3.308c1.017-0.01,1.914-0.062,2.695-0.157
		c0.779-0.096,1.443-0.211,1.994-0.349c0.551-0.137,0.992-0.284,1.328-0.44c0.334-0.156,0.58-0.307,0.736-0.452l2.17-0.021
		l0.215,2.167l0.064-0.001c0.428-0.333,0.914-0.652,1.463-0.959s1.111-0.573,1.689-0.801s1.143-0.408,1.691-0.543
		c0.551-0.135,1.047-0.204,1.492-0.208c1.346-0.014,2.49,0.165,3.432,0.536c0.941,0.37,1.713,0.945,2.316,1.727
		c0.602,0.783,1.045,1.789,1.328,3.018c0.285,1.229,0.436,2.688,0.451,4.379L223.923,100.532z"/>
</g>
<g>
</g>
<g>
	<path fill="#F7A820" d="M240.941,91.855c-0.051-1.23,0.036-2.488,0.262-3.773c0.227-1.285,0.598-2.533,1.113-3.745
		c0.517-1.211,1.178-2.36,1.985-3.448c0.809-1.087,1.768-2.048,2.881-2.883c1.111-0.834,2.378-1.507,3.797-2.018
		c1.42-0.51,2.995-0.802,4.727-0.873c1.774-0.074,3.397,0.088,4.869,0.485s2.788,0.967,3.952,1.706
		c1.162,0.74,2.178,1.619,3.045,2.637c0.866,1.018,1.597,2.109,2.189,3.275c0.594,1.164,1.045,2.379,1.355,3.641
		c0.311,1.264,0.491,2.504,0.542,3.72c0.051,1.217-0.037,2.464-0.264,3.741c-0.228,1.279-0.598,2.523-1.114,3.734
		c-0.516,1.212-1.179,2.365-1.985,3.459s-1.767,2.059-2.879,2.893c-1.112,0.836-2.375,1.512-3.786,2.029
		c-1.413,0.517-2.984,0.812-4.716,0.884c-1.86,0.077-3.537-0.075-5.028-0.458c-1.493-0.383-2.824-0.932-3.993-1.65
		c-1.17-0.719-2.181-1.58-3.032-2.584c-0.853-1.004-1.557-2.093-2.114-3.267s-0.985-2.399-1.281-3.678
		C241.169,94.404,240.994,93.129,240.941,91.855z M247.832,91.053c0.039,0.931,0.144,1.9,0.314,2.912
		c0.171,1.011,0.419,2.008,0.748,2.989c0.327,0.983,0.737,1.916,1.234,2.798c0.495,0.883,1.082,1.65,1.763,2.303
		c0.678,0.654,1.463,1.166,2.354,1.537c0.889,0.371,1.885,0.534,2.987,0.488c1.016-0.042,1.91-0.254,2.684-0.639
		c0.771-0.383,1.441-0.887,2.012-1.513c0.567-0.626,1.044-1.348,1.425-2.167c0.382-0.818,0.684-1.68,0.903-2.586
		c0.221-0.904,0.368-1.835,0.443-2.791c0.075-0.957,0.095-1.879,0.058-2.766c-0.082-1.976-0.329-3.789-0.742-5.442
		c-0.412-1.653-1.002-3.069-1.768-4.249c-0.767-1.179-1.708-2.086-2.822-2.721c-1.116-0.635-2.419-0.92-3.907-0.859
		c-1.045,0.044-1.964,0.258-2.757,0.643c-0.795,0.384-1.483,0.896-2.065,1.537c-0.584,0.641-1.064,1.373-1.446,2.199
		s-0.686,1.701-0.912,2.629c-0.228,0.927-0.378,1.876-0.451,2.846C247.811,89.172,247.794,90.123,247.832,91.053z"/>
</g>
<g>
	<path fill="#F7A820" d="M289.178,82.114c0.515-0.034,1.009,0.005,1.483,0.117c0.474,0.112,0.895,0.304,1.265,0.572
		c0.369,0.271,0.674,0.627,0.911,1.069c0.237,0.444,0.378,0.988,0.42,1.631c0.023,0.343-0.011,0.701-0.1,1.072
		c-0.092,0.372-0.248,0.717-0.471,1.033c-0.223,0.315-0.524,0.584-0.904,0.803c-0.381,0.219-0.85,0.347-1.406,0.384
		c-0.301,0.021-0.61,0.001-0.93-0.057c-0.32-0.058-0.618-0.175-0.896-0.35s-0.523-0.421-0.737-0.737
		c-0.216-0.315-0.361-0.729-0.438-1.241c-0.443,0.03-0.88,0.206-1.311,0.528c-0.431,0.324-0.828,0.717-1.191,1.178
		c-0.366,0.463-0.681,0.953-0.947,1.474s-0.451,0.984-0.554,1.394l0.477,7.16c0.014,0.214,0.027,0.472,0.04,0.771
		c0.013,0.301,0.022,0.623,0.033,0.967c0.008,0.344,0.014,0.699,0.017,1.064c0.003,0.367,0,0.715-0.006,1.045l2.842-0.318
		l0.223,3.345l-11.512,0.765l-0.189-2.851c0.613-0.04,1.09-0.165,1.429-0.375c0.337-0.208,0.581-0.491,0.729-0.845
		c0.148-0.354,0.229-0.772,0.24-1.254c0.01-0.482-0.004-1.016-0.043-1.602l-0.491-7.396c-0.035-0.528-0.063-1.118-0.086-1.77
		c-0.021-0.652-0.019-1.309,0.01-1.971l-3.079,0.333l-0.219-3.302c1.015-0.066,1.908-0.17,2.682-0.309
		c0.772-0.139,1.431-0.293,1.972-0.46s0.975-0.338,1.301-0.513c0.325-0.175,0.562-0.341,0.71-0.496l2.165-0.145l0.443,3.761
		l0.064-0.005c0.261-0.404,0.579-0.855,0.955-1.354s0.818-0.97,1.327-1.413c0.509-0.442,1.075-0.824,1.7-1.146
		C287.729,82.352,288.42,82.165,289.178,82.114z"/>
</g>
<g>
	<path fill="#F7A820" d="M295.089,79.458c-0.051-0.527-0.098-1.135-0.141-1.821c-0.044-0.686-0.062-1.36-0.052-2.023l-3.068,0.422
		l-0.313-3.295c1.012-0.096,1.902-0.224,2.672-0.386c0.769-0.161,1.422-0.333,1.958-0.517c0.536-0.182,0.965-0.366,1.285-0.551
		c0.319-0.185,0.552-0.355,0.696-0.514l2.374-0.226l1.219,12.812c0.899-0.978,1.843-1.686,2.83-2.125
		c0.986-0.439,1.936-0.702,2.849-0.789c1.312-0.125,2.535,0.021,3.668,0.438c1.133,0.418,2.133,1.07,3.003,1.959
		c0.868,0.888,1.581,1.997,2.14,3.324c0.558,1.329,0.917,2.841,1.079,4.538c0.168,1.768,0.08,3.42-0.262,4.956
		c-0.344,1.536-0.924,2.89-1.74,4.062c-0.815,1.171-1.852,2.125-3.104,2.863c-1.254,0.738-2.707,1.186-4.36,1.343
		c-0.4,0.038-0.858,0.049-1.379,0.034c-0.52-0.016-1.073-0.093-1.662-0.23c-0.589-0.139-1.188-0.354-1.799-0.648
		c-0.61-0.295-1.199-0.696-1.766-1.203l-0.043,0.004l-1.076,2.066l-2.652,0.252L295.089,79.458z M305.4,84.627
		c-0.724,0.099-1.381,0.344-1.969,0.738c-0.589,0.395-1.05,0.881-1.383,1.459l0.973,10.223c0.073,0.771,0.233,1.406,0.483,1.908
		c0.248,0.501,0.549,0.894,0.9,1.177c0.35,0.283,0.73,0.474,1.144,0.57c0.411,0.098,0.817,0.127,1.217,0.089
		c0.955-0.09,1.728-0.4,2.317-0.932c0.589-0.531,1.041-1.203,1.352-2.018c0.311-0.813,0.497-1.727,0.559-2.74
		c0.062-1.013,0.043-2.054-0.06-3.123c-0.098-1.027-0.284-2.002-0.559-2.926c-0.275-0.923-0.639-1.727-1.093-2.41
		c-0.453-0.683-1.004-1.21-1.65-1.58S306.241,84.547,305.4,84.627z"/>
</g>
<g>
	<path fill="#FFFFFF" d="M179.485,58.826c-0.037,0.266-0.081,0.576-0.133,0.93c-0.052,0.354-0.105,0.726-0.16,1.113
		c-0.055,0.388-0.108,0.782-0.16,1.18c-0.052,0.398-0.099,0.777-0.141,1.137c-0.042,0.359-0.076,0.688-0.102,0.984
		c-0.026,0.297-0.039,0.536-0.039,0.719c0,0.192,0.024,0.318,0.074,0.379c0.049,0.06,0.103,0.09,0.16,0.09
		c0.063,0,0.126-0.021,0.191-0.063c0.065-0.042,0.133-0.112,0.203-0.211c0.07-0.1,0.141-0.23,0.211-0.395s0.139-0.366,0.207-0.605
		l0.867,0.258c-0.047,0.229-0.124,0.488-0.23,0.777c-0.107,0.289-0.25,0.561-0.43,0.816c-0.18,0.255-0.398,0.47-0.656,0.645
		c-0.258,0.174-0.562,0.262-0.91,0.262c-0.172,0-0.336-0.023-0.492-0.066c-0.156-0.045-0.293-0.123-0.41-0.234
		c-0.117-0.112-0.211-0.262-0.281-0.449s-0.105-0.422-0.105-0.703c0-0.141,0.005-0.299,0.016-0.473
		c0.01-0.175,0.026-0.33,0.047-0.465h-0.016c-0.198,0.463-0.404,0.849-0.617,1.156c-0.214,0.307-0.437,0.552-0.668,0.734
		c-0.232,0.182-0.468,0.311-0.707,0.387c-0.24,0.074-0.482,0.113-0.727,0.113c-0.292,0-0.566-0.059-0.824-0.176
		s-0.482-0.297-0.672-0.539c-0.19-0.242-0.341-0.547-0.453-0.914c-0.112-0.367-0.168-0.799-0.168-1.293
		c0-0.729,0.106-1.422,0.32-2.078c0.213-0.657,0.526-1.233,0.938-1.731c0.411-0.497,0.917-0.893,1.516-1.188
		c0.599-0.294,1.281-0.441,2.047-0.441c0.302,0,0.651,0.03,1.047,0.09C178.623,58.632,179.042,58.716,179.485,58.826z
		 M175.149,65.42c0.198,0,0.383-0.088,0.555-0.262c0.172-0.175,0.332-0.409,0.48-0.703c0.148-0.295,0.284-0.636,0.406-1.023
		c0.122-0.389,0.228-0.797,0.316-1.227c0.088-0.43,0.163-0.865,0.223-1.305c0.06-0.44,0.1-0.86,0.121-1.262
		c-0.058-0.021-0.151-0.042-0.281-0.063c-0.13-0.021-0.258-0.031-0.383-0.031c-0.302,0-0.578,0.095-0.828,0.285
		c-0.25,0.19-0.465,0.473-0.645,0.848s-0.32,0.841-0.422,1.399c-0.102,0.557-0.152,1.203-0.152,1.938
		c0,0.438,0.055,0.781,0.164,1.031S174.961,65.42,175.149,65.42z"/>
	<path fill="#FFFFFF" d="M186.493,65.037c0-0.318,0.021-0.68,0.063-1.086c0.042-0.406,0.087-0.814,0.137-1.223
		c0.049-0.409,0.095-0.8,0.137-1.172c0.042-0.373,0.063-0.681,0.063-0.926c0-0.239-0.034-0.413-0.102-0.52
		c-0.068-0.106-0.185-0.16-0.352-0.16c-0.162,0-0.328,0.086-0.5,0.258s-0.34,0.401-0.504,0.688
		c-0.164,0.287-0.319,0.619-0.465,0.997c-0.146,0.377-0.273,0.771-0.383,1.184c-0.109,0.411-0.197,0.826-0.262,1.246
		c-0.065,0.419-0.098,0.813-0.098,1.184c0,0.072,0.001,0.162,0.004,0.27c0.002,0.106,0.006,0.215,0.012,0.324
		c0.005,0.109,0.01,0.215,0.016,0.316c0.005,0.102,0.01,0.184,0.016,0.246h-2.063c-0.011-0.109-0.02-0.202-0.027-0.277
		c-0.008-0.076-0.013-0.141-0.016-0.195c-0.003-0.055-0.004-0.104-0.004-0.148c0-0.045,0-0.093,0-0.145
		c0-0.229,0.014-0.507,0.043-0.832c0.028-0.326,0.063-0.671,0.105-1.035c0.042-0.365,0.088-0.734,0.141-1.109
		c0.052-0.375,0.099-0.729,0.141-1.063c0.042-0.334,0.077-0.629,0.105-0.887c0.028-0.258,0.043-0.452,0.043-0.582
		c0-0.177-0.023-0.292-0.07-0.344c-0.047-0.052-0.099-0.078-0.156-0.078c-0.12,0-0.245,0.093-0.375,0.277
		c-0.13,0.185-0.263,0.517-0.398,0.996l-0.867-0.258c0.047-0.229,0.118-0.488,0.215-0.777c0.096-0.289,0.229-0.561,0.398-0.816
		c0.169-0.255,0.379-0.47,0.629-0.645c0.25-0.174,0.549-0.262,0.898-0.262c0.172,0,0.338,0.022,0.5,0.066
		c0.161,0.044,0.305,0.123,0.43,0.234c0.125,0.112,0.225,0.262,0.301,0.449c0.075,0.188,0.113,0.422,0.113,0.703
		c0,0.104-0.003,0.197-0.008,0.277c-0.005,0.081-0.012,0.156-0.02,0.227s-0.019,0.142-0.031,0.215
		c-0.013,0.073-0.025,0.154-0.035,0.242h0.016c0.188-0.479,0.392-0.875,0.613-1.188c0.221-0.313,0.45-0.56,0.688-0.742
		c0.237-0.182,0.477-0.309,0.719-0.379s0.478-0.105,0.707-0.105c0.338,0,0.629,0.059,0.871,0.176s0.441,0.283,0.598,0.496
		c0.156,0.214,0.271,0.472,0.344,0.773c0.073,0.302,0.109,0.641,0.109,1.016c0,0.297-0.021,0.616-0.063,0.958
		c-0.042,0.341-0.087,0.688-0.137,1.039c-0.05,0.352-0.095,0.699-0.137,1.043c-0.042,0.344-0.063,0.661-0.063,0.953
		c0,0.177,0.026,0.291,0.078,0.344c0.052,0.052,0.106,0.078,0.164,0.078c0.12,0,0.245-0.093,0.375-0.277
		c0.13-0.186,0.263-0.518,0.398-0.996l0.867,0.258c-0.047,0.229-0.132,0.488-0.254,0.777c-0.123,0.289-0.284,0.561-0.484,0.816
		c-0.201,0.255-0.441,0.47-0.723,0.645c-0.281,0.174-0.602,0.262-0.961,0.262c-0.297,0-0.542-0.041-0.734-0.121
		c-0.193-0.081-0.345-0.199-0.457-0.355c-0.112-0.156-0.191-0.347-0.238-0.57C186.516,65.57,186.493,65.318,186.493,65.037z"/>
	<path fill="#FFFFFF" d="M197.555,64.889c0,0.192,0.024,0.318,0.074,0.379c0.049,0.06,0.103,0.09,0.16,0.09
		c0.12,0,0.245-0.093,0.375-0.277c0.13-0.186,0.263-0.518,0.398-0.996l0.867,0.258c-0.047,0.229-0.12,0.488-0.219,0.777
		c-0.099,0.289-0.236,0.561-0.41,0.816c-0.175,0.255-0.388,0.47-0.641,0.645c-0.253,0.174-0.554,0.262-0.902,0.262
		c-0.172,0-0.336-0.023-0.492-0.066c-0.156-0.045-0.293-0.123-0.41-0.234c-0.117-0.112-0.21-0.262-0.277-0.449
		c-0.068-0.188-0.102-0.422-0.102-0.703c0-0.104,0.001-0.197,0.004-0.277c0.002-0.081,0.006-0.156,0.012-0.227
		c0.005-0.07,0.012-0.143,0.02-0.215c0.008-0.073,0.017-0.154,0.027-0.242h-0.016c-0.193,0.469-0.402,0.859-0.629,1.172
		s-0.458,0.56-0.695,0.742c-0.237,0.182-0.474,0.311-0.711,0.387c-0.237,0.074-0.46,0.113-0.668,0.113
		c-0.401,0-0.75-0.078-1.047-0.234s-0.543-0.371-0.738-0.645s-0.341-0.597-0.438-0.969c-0.097-0.373-0.145-0.775-0.145-1.207
		c0-0.761,0.087-1.465,0.262-2.113c0.174-0.649,0.444-1.208,0.809-1.68c0.364-0.471,0.825-0.841,1.383-1.109
		c0.557-0.268,1.216-0.402,1.977-0.402c0.036,0,0.09,0.001,0.16,0.004c0.07,0.003,0.145,0.005,0.223,0.008
		c0.078,0.003,0.151,0.005,0.219,0.008c0.067,0.003,0.122,0.007,0.164,0.012l0.258-2.289l-1.109,0.047l0.063-1.203
		c0.37,0,0.694-0.016,0.973-0.048c0.278-0.031,0.517-0.071,0.715-0.119c0.198-0.047,0.358-0.099,0.48-0.154
		c0.122-0.056,0.212-0.11,0.27-0.163h0.867c-0.578,4.995-0.892,7.717-0.941,8.168c-0.05,0.45-0.09,0.859-0.121,1.227
		S197.555,64.648,197.555,64.889z M195.188,59.544c-0.302,0-0.564,0.074-0.785,0.223c-0.222,0.148-0.408,0.345-0.559,0.59
		c-0.151,0.245-0.273,0.52-0.367,0.824c-0.094,0.305-0.166,0.614-0.215,0.926c-0.05,0.313-0.083,0.614-0.102,0.906
		c-0.019,0.291-0.027,0.541-0.027,0.75c0,0.552,0.071,0.961,0.215,1.227c0.143,0.266,0.332,0.398,0.566,0.398
		c0.286,0,0.545-0.15,0.777-0.449c0.231-0.3,0.435-0.709,0.609-1.227c0.174-0.519,0.323-1.125,0.445-1.82
		c0.122-0.696,0.217-1.437,0.285-2.223c-0.037-0.016-0.091-0.031-0.164-0.047c-0.073-0.016-0.151-0.03-0.234-0.043
		c-0.083-0.013-0.166-0.022-0.246-0.027C195.306,59.547,195.24,59.544,195.188,59.544z"/>
	<path fill="#FFFFFF" d="M209.477,58.662l-0.102,1.094l-2.008,0.031c-0.031,0.256-0.063,0.528-0.094,0.817
		c-0.031,0.29-0.063,0.579-0.094,0.869c-0.031,0.289-0.06,0.574-0.086,0.854c-0.026,0.278-0.05,0.539-0.07,0.781
		s-0.036,0.462-0.047,0.658c-0.011,0.195-0.016,0.354-0.016,0.473c0,0.104,0.007,0.218,0.02,0.34
		c0.013,0.123,0.046,0.238,0.098,0.345s0.129,0.196,0.23,0.271c0.102,0.072,0.238,0.109,0.41,0.109c0.063,0,0.149-0.012,0.262-0.035
		s0.235-0.07,0.371-0.141s0.274-0.174,0.418-0.309c0.144-0.136,0.277-0.313,0.402-0.531l0.805,0.523
		c-0.359,0.682-0.798,1.191-1.316,1.527s-1.079,0.504-1.684,0.504c-0.438,0-0.792-0.074-1.063-0.219
		c-0.271-0.146-0.479-0.341-0.625-0.584c-0.146-0.242-0.242-0.518-0.289-0.828s-0.065-0.633-0.055-0.967
		c0.011-0.271,0.027-0.584,0.051-0.938c0.023-0.355,0.051-0.729,0.082-1.119s0.066-0.79,0.105-1.196s0.079-0.803,0.121-1.189
		c-0.219,0.005-0.448,0.009-0.688,0.012c-0.239,0.003-0.435,0.004-0.586,0.004l0.141-1.156c0.396,0,0.738-0.06,1.027-0.18
		c0.289-0.12,0.535-0.286,0.738-0.5c0.203-0.213,0.366-0.467,0.488-0.762c0.122-0.294,0.218-0.618,0.285-0.973h1.086l-0.328,2.414
		H209.477z"/>
	<path fill="#FFFFFF" d="M212.984,60.896c0.188-0.479,0.394-0.875,0.617-1.188s0.456-0.56,0.695-0.742
		c0.239-0.182,0.481-0.309,0.727-0.379s0.481-0.105,0.711-0.105c0.339,0,0.63,0.059,0.875,0.176s0.445,0.283,0.602,0.496
		c0.156,0.214,0.272,0.472,0.348,0.773c0.075,0.302,0.113,0.641,0.113,1.016c0,0.297-0.021,0.616-0.063,0.958
		c-0.042,0.341-0.087,0.688-0.137,1.039s-0.095,0.699-0.137,1.043s-0.063,0.661-0.063,0.953c0,0.177,0.026,0.291,0.078,0.344
		c0.052,0.052,0.106,0.078,0.164,0.078c0.12,0,0.245-0.093,0.375-0.277c0.13-0.186,0.263-0.518,0.398-0.996l0.867,0.258
		c-0.047,0.229-0.132,0.488-0.254,0.777s-0.284,0.561-0.484,0.816c-0.2,0.255-0.441,0.47-0.723,0.645
		c-0.281,0.174-0.602,0.262-0.961,0.262c-0.297,0-0.542-0.041-0.734-0.121c-0.192-0.081-0.348-0.199-0.465-0.355
		s-0.199-0.347-0.246-0.57c-0.047-0.225-0.07-0.477-0.07-0.758c0-0.318,0.021-0.68,0.063-1.086s0.087-0.814,0.137-1.223
		c0.05-0.409,0.095-0.8,0.137-1.172c0.042-0.373,0.063-0.681,0.063-0.926c0-0.239-0.034-0.413-0.102-0.52
		c-0.067-0.106-0.185-0.16-0.352-0.16c-0.161,0-0.328,0.086-0.5,0.258s-0.341,0.401-0.508,0.688
		c-0.167,0.287-0.324,0.619-0.473,0.997c-0.148,0.377-0.278,0.771-0.391,1.184c-0.112,0.411-0.2,0.826-0.266,1.246
		c-0.065,0.419-0.098,0.813-0.098,1.184c0,0.072,0.001,0.162,0.004,0.27c0.003,0.106,0.007,0.215,0.012,0.324
		s0.011,0.215,0.016,0.316s0.011,0.184,0.016,0.246h-2.055c-0.011-0.109-0.02-0.202-0.027-0.277
		c-0.008-0.076-0.013-0.141-0.016-0.195s-0.004-0.104-0.004-0.148c0-0.045,0-0.093,0-0.145c0-0.438,0.008-0.9,0.023-1.387
		c0.016-0.487,0.035-0.98,0.059-1.48s0.052-0.999,0.086-1.496c0.034-0.498,0.069-0.977,0.105-1.438s0.112-1.194,0.227-2.199
		c0.114-1.005,0.185-1.563,0.211-1.672l-1.117,0.047l0.063-1.203c0.37,0,0.694-0.016,0.973-0.048
		c0.278-0.031,0.516-0.071,0.711-0.119c0.195-0.047,0.354-0.099,0.477-0.154s0.212-0.11,0.27-0.163h0.867
		c-0.276,2.266-0.429,3.509-0.457,3.73c-0.028,0.222-0.087,0.637-0.176,1.246s-0.164,1.055-0.227,1.336H212.984z"/>
	<path fill="#FFFFFF" d="M226.125,60.498c0,0.292-0.062,0.552-0.184,0.781s-0.289,0.432-0.5,0.61
		c-0.211,0.177-0.456,0.332-0.734,0.465s-0.575,0.247-0.891,0.344c-0.315,0.096-0.64,0.177-0.973,0.242
		c-0.333,0.064-0.656,0.121-0.969,0.168c0,0.453,0.043,0.826,0.129,1.121c0.086,0.294,0.196,0.525,0.332,0.695
		c0.136,0.169,0.289,0.286,0.461,0.352c0.172,0.064,0.344,0.098,0.516,0.098c0.13,0,0.285-0.019,0.465-0.055
		c0.18-0.037,0.364-0.109,0.555-0.219s0.378-0.266,0.563-0.469s0.351-0.472,0.496-0.805l0.906,0.438
		c-0.229,0.525-0.478,0.955-0.746,1.289c-0.269,0.333-0.548,0.595-0.84,0.785c-0.292,0.189-0.591,0.321-0.898,0.395
		c-0.308,0.072-0.617,0.109-0.93,0.109c-0.489,0.004-0.931-0.063-1.324-0.203s-0.729-0.355-1.008-0.645s-0.492-0.654-0.641-1.094
		c-0.148-0.44-0.223-0.957-0.223-1.551c0-0.344,0.034-0.703,0.102-1.078s0.173-0.742,0.316-1.102
		c0.144-0.359,0.324-0.702,0.543-1.027c0.219-0.325,0.478-0.61,0.777-0.855c0.3-0.245,0.641-0.44,1.023-0.586
		c0.383-0.146,0.809-0.219,1.277-0.219c0.354,0,0.679,0.039,0.973,0.117s0.547,0.199,0.758,0.363s0.375,0.374,0.492,0.629
		C226.066,59.847,226.125,60.149,226.125,60.498z M223.547,59.537c-0.271,0-0.501,0.077-0.691,0.23
		c-0.19,0.154-0.349,0.352-0.477,0.594s-0.227,0.515-0.297,0.816c-0.07,0.302-0.121,0.602-0.152,0.899
		c0.433-0.078,0.798-0.179,1.098-0.301c0.3-0.123,0.54-0.262,0.723-0.418c0.183-0.156,0.313-0.327,0.395-0.512
		c0.081-0.185,0.118-0.376,0.113-0.574c-0.005-0.13-0.03-0.241-0.074-0.332c-0.044-0.091-0.101-0.167-0.168-0.227
		c-0.067-0.06-0.144-0.104-0.227-0.133C223.706,59.551,223.625,59.537,223.547,59.537z"/>
</g>
<g>
	<path fill="#FFFFFF" d="M144.201,40.347c0.525,2.057,0.792,3.873,0.8,5.447c0.007,1.574-0.235,2.942-0.727,4.102
		c-0.49,1.16-1.22,2.125-2.187,2.894s-2.153,1.375-3.562,1.818c-0.819,0.258-1.623,0.387-2.412,0.387
		c-0.787,0-1.504-0.116-2.147-0.35c-0.644-0.232-1.195-0.577-1.653-1.034c-0.459-0.457-0.771-1.019-0.937-1.688
		c-0.128-0.455-0.181-0.911-0.16-1.369c0.021-0.457,0.108-0.885,0.26-1.286c0.151-0.4,0.382-0.758,0.688-1.072
		c0.307-0.314,0.694-0.561,1.164-0.738c0.524-0.194,0.991-0.273,1.4-0.237c0.409,0.037,0.771,0.148,1.085,0.334
		c0.313,0.187,0.575,0.431,0.782,0.734c0.208,0.303,0.367,0.632,0.479,0.986c0.136,0.528,0.148,1.095,0.038,1.7
		c0.195,0.239,0.447,0.363,0.759,0.37c0.31,0.008,0.54-0.012,0.69-0.06c0.601-0.188,0.99-0.596,1.169-1.223
		c0.179-0.626,0.115-1.545-0.19-2.755l-4.408-17.104c-0.106-0.387-0.201-0.771-0.283-1.15c-0.081-0.379-0.161-0.74-0.239-1.084
		c-0.078-0.343-0.144-0.657-0.194-0.941c-0.052-0.283-0.085-0.521-0.1-0.711l-3.323,1.179l-0.854-3.29l12.153-3.82l0.727,2.812
		c-0.47,0.178-0.878,0.359-1.226,0.543s-0.621,0.436-0.821,0.753c-0.2,0.318-0.304,0.742-0.311,1.269
		c-0.008,0.528,0.103,1.222,0.328,2.082L144.201,40.347z"/>
</g>
<g>
	<path fill="#FFFFFF" d="M163.864,27.671c0.179,0.782,0.174,1.518-0.014,2.207c-0.188,0.69-0.511,1.336-0.969,1.94
		c-0.456,0.604-1.018,1.169-1.684,1.695c-0.666,0.527-1.393,1.016-2.178,1.467c-0.786,0.451-1.605,0.867-2.459,1.245
		c-0.854,0.378-1.686,0.726-2.495,1.043c0.277,1.215,0.622,2.191,1.032,2.927s0.849,1.29,1.315,1.661s0.95,0.592,1.451,0.661
		s0.981,0.051,1.442-0.054c0.349-0.08,0.754-0.224,1.213-0.431s0.91-0.517,1.354-0.926c0.441-0.41,0.85-0.943,1.221-1.601
		c0.371-0.658,0.65-1.478,0.837-2.461l2.698,0.619c-0.293,1.55-0.696,2.855-1.211,3.912c-0.516,1.058-1.106,1.931-1.771,2.62
		c-0.666,0.688-1.389,1.224-2.168,1.607s-1.588,0.671-2.425,0.862c-1.31,0.314-2.535,0.403-3.675,0.266
		c-1.141-0.136-2.173-0.507-3.097-1.111c-0.925-0.604-1.72-1.451-2.387-2.54c-0.668-1.089-1.183-2.429-1.546-4.021
		c-0.211-0.922-0.34-1.906-0.388-2.953c-0.049-1.046,0.01-2.096,0.174-3.146c0.164-1.052,0.439-2.08,0.827-3.087
		c0.387-1.006,0.907-1.93,1.561-2.77c0.652-0.839,1.448-1.571,2.385-2.197c0.938-0.625,2.034-1.082,3.291-1.368
		c0.949-0.217,1.843-0.31,2.68-0.281c0.836,0.029,1.588,0.199,2.254,0.51c0.666,0.311,1.234,0.772,1.704,1.385
		C163.309,25.962,163.65,26.736,163.864,27.671z M156.364,26.673c-0.727,0.166-1.298,0.513-1.713,1.042
		c-0.416,0.528-0.721,1.156-0.914,1.883c-0.194,0.728-0.293,1.518-0.297,2.37c-0.003,0.854,0.044,1.687,0.142,2.502
		c1.111-0.474,2.031-0.967,2.759-1.479c0.728-0.511,1.289-1.032,1.682-1.563c0.393-0.53,0.642-1.068,0.744-1.613
		c0.104-0.545,0.088-1.082-0.048-1.609c-0.094-0.346-0.228-0.627-0.401-0.845c-0.175-0.217-0.371-0.385-0.589-0.505
		c-0.219-0.119-0.448-0.191-0.688-0.217C156.798,26.615,156.573,26.625,156.364,26.673z"/>
</g>
<g>
	<path fill="#FFFFFF" d="M171.962,35.761c0.398-0.048,0.77-0.021,1.114,0.081c0.344,0.103,0.649,0.264,0.914,0.484
		s0.484,0.486,0.659,0.796s0.285,0.651,0.33,1.02c0.058,0.469,0.017,0.907-0.121,1.313c0.09,0.148,0.251,0.288,0.483,0.417
		c0.233,0.131,0.49,0.237,0.775,0.317c0.283,0.081,0.572,0.14,0.865,0.176c0.293,0.037,0.546,0.041,0.759,0.015
		c0.641-0.078,1.171-0.221,1.593-0.432c0.422-0.21,0.752-0.459,0.99-0.749c0.239-0.289,0.399-0.604,0.48-0.946
		c0.081-0.341,0.101-0.683,0.06-1.024c-0.049-0.398-0.215-0.753-0.498-1.064c-0.284-0.312-0.646-0.596-1.089-0.853
		c-0.442-0.256-0.949-0.504-1.52-0.745c-0.57-0.24-1.16-0.489-1.769-0.747c-1.111-0.471-2.078-0.916-2.9-1.335
		c-0.823-0.418-1.513-0.865-2.068-1.338c-0.556-0.473-0.99-0.994-1.305-1.561c-0.315-0.568-0.519-1.236-0.612-2.003
		c-0.094-0.768-0.005-1.547,0.267-2.338c0.271-0.791,0.723-1.527,1.354-2.21s1.439-1.272,2.425-1.768
		c0.985-0.496,2.146-0.825,3.483-0.988c0.882-0.107,1.772-0.104,2.674,0.009c0.901,0.114,1.726,0.334,2.473,0.662
		s1.373,0.763,1.881,1.308c0.506,0.544,0.805,1.187,0.895,1.925c0.047,0.384,0.027,0.758-0.058,1.122
		c-0.086,0.364-0.23,0.692-0.433,0.983c-0.202,0.292-0.461,0.537-0.776,0.733c-0.315,0.198-0.686,0.322-1.112,0.374
		c-0.398,0.049-0.77,0.022-1.113-0.081c-0.345-0.102-0.649-0.263-0.914-0.484c-0.266-0.22-0.48-0.482-0.647-0.787
		s-0.272-0.634-0.315-0.99c-0.056-0.455-0.016-0.886,0.123-1.292c-0.133-0.142-0.302-0.255-0.507-0.338
		c-0.205-0.083-0.422-0.147-0.65-0.191c-0.229-0.044-0.46-0.07-0.691-0.078c-0.232-0.008-0.44-0.001-0.625,0.021
		c-0.313,0.039-0.634,0.132-0.962,0.28c-0.328,0.148-0.626,0.336-0.894,0.563c-0.269,0.228-0.48,0.499-0.637,0.813
		c-0.156,0.315-0.214,0.65-0.17,1.005c0.036,0.299,0.114,0.56,0.236,0.783c0.12,0.224,0.34,0.453,0.657,0.688
		c0.317,0.236,0.763,0.488,1.337,0.756c0.574,0.27,1.34,0.605,2.298,1.008c0.775,0.324,1.575,0.667,2.397,1.028
		c0.824,0.361,1.586,0.788,2.288,1.279s1.299,1.064,1.79,1.719c0.491,0.654,0.792,1.437,0.903,2.346
		c0.119,0.981-0.002,1.912-0.363,2.793c-0.361,0.881-0.904,1.669-1.627,2.363c-0.724,0.694-1.612,1.275-2.666,1.743
		c-1.055,0.468-2.207,0.778-3.458,0.931c-1.052,0.128-2.062,0.132-3.028,0.012s-1.837-0.356-2.608-0.71
		c-0.771-0.353-1.405-0.817-1.901-1.391c-0.495-0.574-0.791-1.252-0.886-2.035c-0.054-0.441-0.033-0.858,0.063-1.252
		c0.096-0.394,0.256-0.742,0.479-1.043c0.224-0.302,0.496-0.548,0.819-0.738C171.226,35.926,171.578,35.808,171.962,35.761z"/>
</g>
<g>
	<path fill="#FFFFFF" d="M192.285,33.551c0.4-0.013,0.768,0.047,1.102,0.179c0.334,0.133,0.624,0.32,0.868,0.563
		c0.244,0.243,0.439,0.527,0.587,0.851c0.146,0.325,0.227,0.674,0.238,1.046c0.016,0.473-0.063,0.905-0.237,1.297
		c0.077,0.156,0.226,0.308,0.445,0.458s0.468,0.279,0.743,0.384c0.275,0.106,0.558,0.19,0.847,0.252
		c0.288,0.062,0.54,0.089,0.755,0.083c0.645-0.021,1.186-0.117,1.624-0.29c0.439-0.172,0.79-0.392,1.053-0.658
		c0.265-0.266,0.451-0.566,0.563-0.9c0.11-0.333,0.16-0.671,0.149-1.015c-0.014-0.4-0.146-0.769-0.401-1.104
		c-0.255-0.336-0.591-0.651-1.009-0.945c-0.419-0.294-0.9-0.587-1.448-0.876c-0.547-0.29-1.112-0.59-1.695-0.901
		c-1.064-0.567-1.988-1.096-2.771-1.585c-0.782-0.491-1.43-0.996-1.941-1.517c-0.511-0.521-0.898-1.078-1.161-1.671
		c-0.264-0.593-0.407-1.276-0.433-2.049c-0.025-0.773,0.132-1.542,0.473-2.305c0.34-0.764,0.854-1.458,1.544-2.083
		c0.688-0.624,1.546-1.139,2.571-1.545s2.211-0.631,3.558-0.676c0.887-0.029,1.775,0.053,2.663,0.246
		c0.888,0.193,1.688,0.486,2.403,0.878c0.714,0.393,1.301,0.882,1.758,1.469c0.454,0.587,0.695,1.252,0.72,1.997
		c0.013,0.387-0.04,0.758-0.157,1.112c-0.117,0.355-0.289,0.669-0.516,0.941c-0.228,0.273-0.508,0.494-0.839,0.662
		c-0.332,0.168-0.712,0.26-1.142,0.274c-0.4,0.013-0.768-0.046-1.102-0.179c-0.335-0.132-0.623-0.319-0.867-0.563
		c-0.244-0.243-0.438-0.522-0.577-0.841c-0.139-0.318-0.215-0.655-0.227-1.014c-0.015-0.458,0.065-0.883,0.238-1.276
		c-0.121-0.153-0.277-0.281-0.474-0.382c-0.197-0.101-0.409-0.184-0.633-0.248c-0.225-0.064-0.451-0.11-0.682-0.139
		s-0.438-0.04-0.624-0.034c-0.315,0.011-0.643,0.075-0.982,0.194s-0.653,0.279-0.94,0.482c-0.288,0.203-0.523,0.454-0.706,0.754
		c-0.184,0.3-0.271,0.628-0.259,0.987c0.011,0.301,0.065,0.567,0.167,0.8c0.1,0.233,0.298,0.481,0.594,0.744
		c0.295,0.263,0.716,0.554,1.265,0.872c0.548,0.319,1.28,0.721,2.199,1.207c0.744,0.391,1.51,0.804,2.298,1.236
		c0.787,0.433,1.509,0.925,2.166,1.477c0.655,0.552,1.2,1.175,1.631,1.87c0.431,0.696,0.661,1.501,0.69,2.417
		c0.033,0.988-0.17,1.905-0.607,2.75c-0.438,0.846-1.048,1.582-1.831,2.209c-0.782,0.628-1.718,1.127-2.81,1.5
		c-1.091,0.372-2.266,0.579-3.525,0.62c-1.06,0.035-2.065-0.05-3.019-0.255c-0.952-0.205-1.798-0.518-2.534-0.938
		c-0.738-0.42-1.328-0.938-1.771-1.554c-0.442-0.616-0.677-1.318-0.702-2.105c-0.015-0.444,0.043-0.857,0.174-1.242
		c0.13-0.384,0.32-0.716,0.569-0.997c0.249-0.28,0.542-0.501,0.881-0.663S191.898,33.564,192.285,33.551z"/>
</g>
<g>
	<path fill="#FFFFFF" d="M220.731,25.248c-0.051,0.47-0.148,1.061-0.291,1.772c-0.143,0.713-0.313,1.476-0.51,2.289
		c-0.197,0.814-0.4,1.646-0.609,2.494c-0.209,0.85-0.407,1.652-0.599,2.409c-0.19,0.758-0.353,1.439-0.483,2.044
		c-0.131,0.605-0.215,1.072-0.25,1.399c-0.054,0.484-0.017,0.805,0.11,0.963c0.126,0.158,0.268,0.245,0.425,0.263
		c0.327,0.036,0.697-0.179,1.108-0.646s0.873-1.335,1.388-2.604l2.293,0.965c-0.196,0.612-0.506,1.295-0.927,2.049
		s-0.948,1.449-1.579,2.086c-0.632,0.637-1.358,1.151-2.18,1.544c-0.82,0.393-1.723,0.535-2.705,0.428
		c-0.811-0.089-1.473-0.273-1.982-0.553c-0.51-0.278-0.9-0.649-1.174-1.111c-0.273-0.463-0.445-1.007-0.513-1.635
		c-0.069-0.627-0.061-1.324,0.024-2.094c0.063-0.569,0.168-1.213,0.319-1.932c0.15-0.718,0.319-1.467,0.505-2.246
		s0.389-1.563,0.604-2.354c0.217-0.79,0.416-1.558,0.599-2.301c0.182-0.744,0.345-1.436,0.487-2.076
		c0.141-0.64,0.238-1.188,0.287-1.644c0.054-0.483,0.016-0.805-0.11-0.963c-0.127-0.158-0.269-0.245-0.425-0.263
		c-0.328-0.036-0.697,0.18-1.108,0.646s-0.874,1.334-1.388,2.604l-2.293-0.965c0.197-0.612,0.51-1.295,0.938-2.048
		s0.965-1.446,1.611-2.082c0.645-0.635,1.387-1.148,2.223-1.54c0.834-0.391,1.744-0.532,2.727-0.425
		c0.754,0.083,1.375,0.273,1.861,0.571c0.485,0.299,0.863,0.686,1.137,1.162c0.271,0.478,0.439,1.036,0.508,1.677
		C220.824,23.774,220.816,24.479,220.731,25.248z M222.718,12.844c-0.084,0.495-0.232,0.947-0.451,1.355
		c-0.217,0.408-0.494,0.76-0.828,1.055c-0.336,0.295-0.72,0.512-1.152,0.651c-0.434,0.141-0.893,0.184-1.376,0.131
		c-0.499-0.055-0.94-0.197-1.325-0.427c-0.386-0.229-0.703-0.523-0.952-0.882s-0.425-0.761-0.527-1.203
		c-0.103-0.444-0.113-0.913-0.03-1.408c0.084-0.495,0.252-0.952,0.508-1.371c0.254-0.419,0.561-0.774,0.916-1.067
		c0.357-0.292,0.75-0.508,1.185-0.648c0.433-0.139,0.87-0.185,1.312-0.137c0.471,0.052,0.895,0.192,1.272,0.42
		c0.378,0.229,0.688,0.523,0.931,0.881c0.241,0.357,0.409,0.765,0.504,1.222C222.794,11.872,222.801,12.349,222.718,12.844z"/>
</g>
<g>
	<path fill="#FFFFFF" d="M245.22,29.609c-0.168,0.872-0.552,1.527-1.146,1.966c-0.597,0.439-1.318,0.591-2.168,0.455
		c-0.496-0.081-0.898-0.239-1.21-0.475c-0.313-0.235-0.548-0.504-0.708-0.805s-0.258-0.612-0.29-0.932
		c-0.034-0.32-0.024-0.607,0.024-0.86s0.137-0.538,0.265-0.856s0.295-0.604,0.505-0.854c-0.061-0.289-0.26-0.564-0.595-0.826
		c-0.337-0.263-0.757-0.442-1.263-0.541c-0.619-0.12-1.189-0.077-1.711,0.128c-0.521,0.205-1.001,0.516-1.438,0.934
		c-0.438,0.417-0.832,0.92-1.179,1.509c-0.348,0.589-0.654,1.211-0.92,1.865c-0.267,0.655-0.5,1.313-0.701,1.973
		c-0.201,0.661-0.364,1.277-0.489,1.851c-0.271,1.171-0.383,2.181-0.335,3.027c0.046,0.848,0.191,1.564,0.436,2.15
		s0.563,1.045,0.959,1.377s0.813,0.562,1.256,0.691c0.385,0.118,0.84,0.186,1.361,0.199c0.523,0.014,1.078-0.085,1.666-0.298
		c0.59-0.213,1.205-0.572,1.852-1.079c0.645-0.507,1.29-1.22,1.936-2.141l2.234,1.681c-0.895,1.301-1.793,2.345-2.697,3.133
		c-0.904,0.787-1.811,1.381-2.72,1.781c-0.909,0.399-1.815,0.629-2.716,0.688c-0.902,0.059-1.804,0.007-2.706-0.152
		c-1.263-0.261-2.378-0.681-3.345-1.262c-0.967-0.582-1.748-1.331-2.343-2.249c-0.596-0.918-0.982-2.007-1.161-3.268
		c-0.18-1.26-0.112-2.691,0.199-4.295c0.18-0.928,0.463-1.879,0.849-2.855c0.386-0.975,0.866-1.91,1.441-2.806
		s1.243-1.725,2.004-2.489s1.599-1.4,2.515-1.908c0.916-0.509,1.907-0.863,2.975-1.064c1.068-0.202,2.199-0.187,3.395,0.045
		c0.983,0.191,1.881,0.493,2.691,0.905c0.809,0.412,1.479,0.907,2.01,1.483c0.529,0.578,0.912,1.221,1.146,1.931
		C245.331,28.074,245.372,28.822,245.22,29.609z"/>
</g>
<g>
	<path fill="#FFFFFF" d="M269.286,31.939c-0.303,0.673-0.66,1.456-1.07,2.351c-0.412,0.894-0.842,1.832-1.285,2.813
		c-0.445,0.981-0.892,1.977-1.338,2.988c-0.445,1.011-0.863,1.975-1.251,2.891c-0.39,0.915-0.732,1.755-1.03,2.519
		c-0.3,0.763-0.52,1.386-0.66,1.866c-0.15,0.509-0.184,0.861-0.098,1.057c0.083,0.197,0.201,0.317,0.352,0.361
		c0.166,0.049,0.35,0.043,0.555-0.017c0.203-0.06,0.438-0.192,0.699-0.399c0.262-0.206,0.549-0.498,0.861-0.877
		c0.313-0.379,0.651-0.857,1.016-1.438l2.09,1.353c-0.303,0.568-0.707,1.192-1.211,1.872c-0.506,0.68-1.095,1.287-1.766,1.822
		c-0.673,0.533-1.417,0.931-2.232,1.191c-0.814,0.261-1.684,0.256-2.604-0.015c-0.454-0.133-0.869-0.319-1.248-0.557
		c-0.377-0.238-0.678-0.55-0.9-0.937c-0.223-0.386-0.354-0.854-0.395-1.402c-0.039-0.55,0.049-1.195,0.268-1.938
		c0.108-0.371,0.244-0.782,0.406-1.235c0.163-0.452,0.324-0.849,0.484-1.19l-0.041-0.012c-0.882,1.07-1.723,1.928-2.524,2.573
		c-0.802,0.645-1.579,1.118-2.331,1.42c-0.754,0.301-1.477,0.459-2.166,0.473c-0.69,0.013-1.359-0.075-2.004-0.265
		c-0.771-0.226-1.449-0.594-2.039-1.103s-1.041-1.156-1.355-1.942c-0.314-0.787-0.477-1.707-0.487-2.763
		c-0.011-1.057,0.175-2.236,0.56-3.542c0.564-1.924,1.382-3.67,2.455-5.235c1.071-1.566,2.343-2.846,3.814-3.839
		c1.471-0.994,3.11-1.647,4.919-1.96c1.808-0.312,3.724-0.172,5.743,0.421c0.797,0.234,1.693,0.584,2.692,1.049
		C267.161,30.76,268.202,31.308,269.286,31.939z M252.735,45.979c0.523,0.152,1.078,0.066,1.668-0.262
		c0.588-0.326,1.191-0.82,1.813-1.482c0.619-0.661,1.24-1.457,1.865-2.386c0.623-0.929,1.217-1.926,1.784-2.991
		c0.566-1.065,1.099-2.155,1.599-3.271c0.498-1.114,0.932-2.192,1.297-3.235c-0.135-0.099-0.367-0.227-0.693-0.382
		c-0.328-0.156-0.656-0.282-0.986-0.38c-0.797-0.233-1.6-0.196-2.406,0.111s-1.592,0.887-2.357,1.736
		c-0.764,0.852-1.496,1.972-2.195,3.363c-0.701,1.393-1.336,3.057-1.904,4.994c-0.339,1.154-0.461,2.104-0.365,2.849
		C251.946,45.388,252.241,45.833,252.735,45.979z"/>
</g>
<g>
</g>
<g>
</g>
<g>
</g>
<g>
</g>
<g>
</g>
<g>
</g>
</svg>
